<mxfile host="app.diagrams.net" modified="2021-12-15T15:53:31.755Z" agent="5.0 (X11)" etag="ZW1Pc70weaCr972fhDK3" version="15.9.6" type="github" pages="4">
  <diagram id="49ln73r_cyLWRRV5bPis" name="Class">
    <mxGraphModel dx="771" dy="411" grid="1" gridSize="10" guides="1" tooltips="1" connect="1" arrows="1" fold="1" page="1" pageScale="1" pageWidth="850" pageHeight="1100" math="0" shadow="0">
      <root>
        <mxCell id="0" />
        <mxCell id="1" parent="0" />
        <mxCell id="VT_Aw-DX98Dw9pmr3WUd-1" value="CTCPclient" style="swimlane;fontStyle=1;align=center;verticalAlign=top;childLayout=stackLayout;horizontal=1;startSize=26;horizontalStack=0;resizeParent=1;resizeParentMax=0;resizeLast=0;collapsible=1;marginBottom=0;fillColor=#FAE5C7;strokeColor=#0F8B8D;fontColor=#143642;" vertex="1" parent="1">
          <mxGeometry x="320" y="190" width="200" height="220" as="geometry">
            <mxRectangle x="240" y="280" width="60" height="26" as="alternateBounds" />
          </mxGeometry>
        </mxCell>
        <mxCell id="VT_Aw-DX98Dw9pmr3WUd-2" value="-  mutComms : mutex&#xa;-  mutSend : mutex&#xa;- condSend : condition variable&#xa;- tx_msgs : vector&lt;string&gt;&#xa;&#xa;&#xa;&#xa;&#xa;&#xa;" style="text;strokeColor=none;fillColor=none;align=left;verticalAlign=top;spacingLeft=4;spacingRight=4;overflow=hidden;rotatable=0;points=[[0,0.5],[1,0.5]];portConstraint=eastwest;fontColor=#143642;" vertex="1" parent="VT_Aw-DX98Dw9pmr3WUd-1">
          <mxGeometry y="26" width="200" height="84" as="geometry" />
        </mxCell>
        <mxCell id="VT_Aw-DX98Dw9pmr3WUd-3" value="" style="line;strokeWidth=1;fillColor=none;align=left;verticalAlign=middle;spacingTop=-1;spacingLeft=3;spacingRight=3;rotatable=0;labelPosition=right;points=[];portConstraint=eastwest;labelBackgroundColor=#DAD2D8;strokeColor=#0F8B8D;fontColor=#143642;" vertex="1" parent="VT_Aw-DX98Dw9pmr3WUd-1">
          <mxGeometry y="110" width="200" height="8" as="geometry" />
        </mxCell>
        <mxCell id="VT_Aw-DX98Dw9pmr3WUd-4" value="+ TCPclient(void)&#xa;+ ~TCPclient(void)&#xa;&#xa;+ push(IN msg : string) void&#xa;+ recv(void) void&#xa;- tSend(void*) void" style="text;strokeColor=none;fillColor=none;align=left;verticalAlign=top;spacingLeft=4;spacingRight=4;overflow=hidden;rotatable=0;points=[[0,0.5],[1,0.5]];portConstraint=eastwest;fontColor=#143642;" vertex="1" parent="VT_Aw-DX98Dw9pmr3WUd-1">
          <mxGeometry y="118" width="200" height="102" as="geometry" />
        </mxCell>
      </root>
    </mxGraphModel>
  </diagram>
  <diagram id="X-pz4pQRBfgOnDB83TKP" name="push">
    <mxGraphModel dx="931" dy="527" grid="1" gridSize="10" guides="1" tooltips="1" connect="1" arrows="1" fold="1" page="1" pageScale="1" pageWidth="850" pageHeight="1100" math="0" shadow="0">
      <root>
        <mxCell id="3cbHG8BPpw8UgqueG_jl-0" />
        <mxCell id="3cbHG8BPpw8UgqueG_jl-1" parent="3cbHG8BPpw8UgqueG_jl-0" />
        <mxCell id="3cbHG8BPpw8UgqueG_jl-2" style="edgeStyle=orthogonalEdgeStyle;curved=0;rounded=1;sketch=0;orthogonalLoop=1;jettySize=auto;html=1;exitX=0.5;exitY=1;exitDx=0;exitDy=0;entryX=0.5;entryY=0;entryDx=0;entryDy=0;fontColor=#143642;strokeColor=#A8201A;fillColor=#FAE5C7;" edge="1" parent="3cbHG8BPpw8UgqueG_jl-1" source="3cbHG8BPpw8UgqueG_jl-3">
          <mxGeometry relative="1" as="geometry">
            <mxPoint x="435.26" y="119.99999999999989" as="targetPoint" />
          </mxGeometry>
        </mxCell>
        <mxCell id="3cbHG8BPpw8UgqueG_jl-3" value="&lt;div&gt;Push&lt;/div&gt;&lt;div&gt;&lt;br&gt;&lt;/div&gt;&lt;div&gt;IN: &lt;i&gt;&lt;span style=&quot;font-weight: normal&quot;&gt;msg&lt;/span&gt;&lt;/i&gt;&lt;br&gt;&lt;/div&gt;" style="ellipse;whiteSpace=wrap;html=1;fillColor=#FAE5C7;strokeColor=#0F8B8D;fontColor=#143642;fontStyle=1" vertex="1" parent="3cbHG8BPpw8UgqueG_jl-1">
          <mxGeometry x="372.26" y="30" width="125.5" height="50" as="geometry" />
        </mxCell>
        <mxCell id="3cbHG8BPpw8UgqueG_jl-4" style="edgeStyle=orthogonalEdgeStyle;curved=0;rounded=1;sketch=0;orthogonalLoop=1;jettySize=auto;html=1;exitX=0.5;exitY=1;exitDx=0;exitDy=0;entryX=0.5;entryY=0;entryDx=0;entryDy=0;fontColor=#143642;strokeColor=#A8201A;fillColor=#FAE5C7;" edge="1" parent="3cbHG8BPpw8UgqueG_jl-1" source="3cbHG8BPpw8UgqueG_jl-5" target="3cbHG8BPpw8UgqueG_jl-9">
          <mxGeometry relative="1" as="geometry" />
        </mxCell>
        <mxCell id="3cbHG8BPpw8UgqueG_jl-5" value="&lt;b&gt;Lock&lt;/b&gt; &lt;i&gt;mutSend&lt;/i&gt;" style="rounded=0;whiteSpace=wrap;html=1;sketch=0;fontColor=#143642;strokeColor=#0F8B8D;fillColor=#FAE5C7;" vertex="1" parent="3cbHG8BPpw8UgqueG_jl-1">
          <mxGeometry x="360.26" y="120" width="150" height="40" as="geometry" />
        </mxCell>
        <mxCell id="3cbHG8BPpw8UgqueG_jl-6" style="edgeStyle=orthogonalEdgeStyle;curved=0;rounded=1;sketch=0;orthogonalLoop=1;jettySize=auto;html=1;exitX=0.5;exitY=1;exitDx=0;exitDy=0;entryX=0.5;entryY=0;entryDx=0;entryDy=0;fontColor=#143642;strokeColor=#A8201A;fillColor=#FAE5C7;" edge="1" parent="3cbHG8BPpw8UgqueG_jl-1" source="3cbHG8BPpw8UgqueG_jl-7" target="3cbHG8BPpw8UgqueG_jl-12">
          <mxGeometry relative="1" as="geometry" />
        </mxCell>
        <mxCell id="3cbHG8BPpw8UgqueG_jl-7" value="&lt;b&gt;Unlock&lt;/b&gt; &lt;i&gt;mutSend&lt;/i&gt;" style="rounded=0;whiteSpace=wrap;html=1;sketch=0;fontColor=#143642;strokeColor=#0F8B8D;fillColor=#FAE5C7;" vertex="1" parent="3cbHG8BPpw8UgqueG_jl-1">
          <mxGeometry x="360" y="300" width="150" height="40" as="geometry" />
        </mxCell>
        <mxCell id="3cbHG8BPpw8UgqueG_jl-8" style="edgeStyle=orthogonalEdgeStyle;curved=0;rounded=1;sketch=0;orthogonalLoop=1;jettySize=auto;html=1;exitX=0.5;exitY=1;exitDx=0;exitDy=0;fontColor=#143642;strokeColor=#A8201A;fillColor=#FAE5C7;" edge="1" parent="3cbHG8BPpw8UgqueG_jl-1" source="3cbHG8BPpw8UgqueG_jl-9" target="3cbHG8BPpw8UgqueG_jl-11">
          <mxGeometry relative="1" as="geometry" />
        </mxCell>
        <mxCell id="3cbHG8BPpw8UgqueG_jl-9" value="&lt;b&gt;Push &lt;/b&gt;&lt;i&gt;msg&lt;/i&gt; to &lt;i&gt;tx_msgs&lt;/i&gt;" style="rounded=0;whiteSpace=wrap;html=1;sketch=0;fontColor=#143642;strokeColor=#0F8B8D;fillColor=#FAE5C7;" vertex="1" parent="3cbHG8BPpw8UgqueG_jl-1">
          <mxGeometry x="360.01" y="180" width="150.25" height="40" as="geometry" />
        </mxCell>
        <mxCell id="3cbHG8BPpw8UgqueG_jl-10" style="edgeStyle=orthogonalEdgeStyle;curved=0;rounded=1;sketch=0;orthogonalLoop=1;jettySize=auto;html=1;exitX=0.5;exitY=1;exitDx=0;exitDy=0;fontColor=#143642;strokeColor=#A8201A;fillColor=#FAE5C7;" edge="1" parent="3cbHG8BPpw8UgqueG_jl-1" source="3cbHG8BPpw8UgqueG_jl-11" target="3cbHG8BPpw8UgqueG_jl-7">
          <mxGeometry relative="1" as="geometry" />
        </mxCell>
        <mxCell id="3cbHG8BPpw8UgqueG_jl-11" value="&lt;b&gt;Signal&lt;/b&gt; &lt;i&gt;condSend&lt;/i&gt;" style="rounded=0;whiteSpace=wrap;html=1;sketch=0;fontColor=#143642;strokeColor=#0F8B8D;fillColor=#FAE5C7;" vertex="1" parent="3cbHG8BPpw8UgqueG_jl-1">
          <mxGeometry x="360.01" y="240" width="150" height="40" as="geometry" />
        </mxCell>
        <mxCell id="3cbHG8BPpw8UgqueG_jl-12" value="End" style="ellipse;whiteSpace=wrap;html=1;fillColor=#FAE5C7;strokeColor=#0F8B8D;fontColor=#143642;fontStyle=1" vertex="1" parent="3cbHG8BPpw8UgqueG_jl-1">
          <mxGeometry x="405.88" y="370" width="58.25" height="40" as="geometry" />
        </mxCell>
      </root>
    </mxGraphModel>
  </diagram>
  <diagram id="GCx22StDLpc6vgn4ESjC" name="send">
    <mxGraphModel dx="1350" dy="764" grid="1" gridSize="10" guides="1" tooltips="1" connect="1" arrows="1" fold="1" page="1" pageScale="1" pageWidth="850" pageHeight="1100" math="0" shadow="0">
      <root>
        <mxCell id="8K9KiGm8iUB3ZnxoUxFl-0" />
        <mxCell id="8K9KiGm8iUB3ZnxoUxFl-1" parent="8K9KiGm8iUB3ZnxoUxFl-0" />
        <mxCell id="8K9KiGm8iUB3ZnxoUxFl-2" style="edgeStyle=orthogonalEdgeStyle;curved=0;rounded=1;sketch=0;orthogonalLoop=1;jettySize=auto;html=1;exitX=0.5;exitY=1;exitDx=0;exitDy=0;entryX=0.5;entryY=0;entryDx=0;entryDy=0;fontColor=#143642;strokeColor=#A8201A;fillColor=#FAE5C7;" edge="1" parent="8K9KiGm8iUB3ZnxoUxFl-1" source="8K9KiGm8iUB3ZnxoUxFl-3" target="8K9KiGm8iUB3ZnxoUxFl-5">
          <mxGeometry relative="1" as="geometry">
            <mxPoint x="464.75" y="150" as="targetPoint" />
          </mxGeometry>
        </mxCell>
        <mxCell id="8K9KiGm8iUB3ZnxoUxFl-3" value="Send" style="ellipse;whiteSpace=wrap;html=1;fillColor=#FAE5C7;strokeColor=#0F8B8D;fontColor=#143642;fontStyle=1" vertex="1" parent="8K9KiGm8iUB3ZnxoUxFl-1">
          <mxGeometry x="402" y="80" width="125.5" height="50" as="geometry" />
        </mxCell>
        <mxCell id="8K9KiGm8iUB3ZnxoUxFl-4" style="edgeStyle=orthogonalEdgeStyle;curved=0;rounded=1;sketch=0;orthogonalLoop=1;jettySize=auto;html=1;exitX=0.5;exitY=1;exitDx=0;exitDy=0;entryX=0.5;entryY=0;entryDx=0;entryDy=0;fontColor=#143642;strokeColor=#A8201A;fillColor=#FAE5C7;" edge="1" parent="8K9KiGm8iUB3ZnxoUxFl-1" source="8K9KiGm8iUB3ZnxoUxFl-5" target="8K9KiGm8iUB3ZnxoUxFl-16">
          <mxGeometry relative="1" as="geometry" />
        </mxCell>
        <mxCell id="8K9KiGm8iUB3ZnxoUxFl-5" value="&lt;b&gt;Lock&lt;/b&gt; &lt;i&gt;mutSend&lt;/i&gt;" style="rounded=0;whiteSpace=wrap;html=1;sketch=0;fontColor=#143642;strokeColor=#0F8B8D;fillColor=#FAE5C7;" vertex="1" parent="8K9KiGm8iUB3ZnxoUxFl-1">
          <mxGeometry x="390" y="170" width="150" height="40" as="geometry" />
        </mxCell>
        <mxCell id="8K9KiGm8iUB3ZnxoUxFl-6" value="condSend" style="edgeStyle=orthogonalEdgeStyle;curved=0;rounded=1;sketch=0;orthogonalLoop=1;jettySize=auto;html=1;fontColor=#143642;strokeColor=#A8201A;fillColor=#FAE5C7;entryX=1;entryY=0.5;entryDx=0;entryDy=0;fontStyle=2" edge="1" parent="8K9KiGm8iUB3ZnxoUxFl-1" source="8K9KiGm8iUB3ZnxoUxFl-7" target="8K9KiGm8iUB3ZnxoUxFl-18">
          <mxGeometry x="-0.6671" relative="1" as="geometry">
            <mxPoint x="464.5000000000001" y="409.9999999999999" as="targetPoint" />
            <Array as="points">
              <mxPoint x="565" y="370" />
            </Array>
            <mxPoint as="offset" />
          </mxGeometry>
        </mxCell>
        <mxCell id="8K9KiGm8iUB3ZnxoUxFl-7" value="&lt;b&gt;Wait&lt;/b&gt; for &lt;i&gt;condSend&lt;/i&gt;" style="rounded=0;whiteSpace=wrap;html=1;sketch=0;fontColor=#143642;strokeColor=#0F8B8D;fillColor=#FAE5C7;" vertex="1" parent="8K9KiGm8iUB3ZnxoUxFl-1">
          <mxGeometry x="490" y="310" width="150" height="40" as="geometry" />
        </mxCell>
        <mxCell id="8K9KiGm8iUB3ZnxoUxFl-8" value="" style="edgeStyle=orthogonalEdgeStyle;rounded=1;sketch=0;orthogonalLoop=1;jettySize=auto;html=1;fontColor=#143642;strokeColor=#A8201A;fillColor=#FAE5C7;" edge="1" parent="8K9KiGm8iUB3ZnxoUxFl-1" source="8K9KiGm8iUB3ZnxoUxFl-9" target="8K9KiGm8iUB3ZnxoUxFl-11">
          <mxGeometry relative="1" as="geometry" />
        </mxCell>
        <mxCell id="8K9KiGm8iUB3ZnxoUxFl-9" value="&lt;b&gt;TCPSend&lt;/b&gt;(&lt;i&gt;msg&lt;/i&gt;)" style="shape=process;whiteSpace=wrap;html=1;backgroundOutline=1;rounded=0;sketch=0;fontColor=#143642;strokeColor=#0F8B8D;fillColor=#FAE5C7;" vertex="1" parent="8K9KiGm8iUB3ZnxoUxFl-1">
          <mxGeometry x="390.38" y="590" width="150" height="40" as="geometry" />
        </mxCell>
        <mxCell id="8K9KiGm8iUB3ZnxoUxFl-10" style="edgeStyle=orthogonalEdgeStyle;rounded=1;orthogonalLoop=1;jettySize=auto;html=1;exitX=0.5;exitY=1;exitDx=0;exitDy=0;strokeColor=#A8201A;" edge="1" parent="8K9KiGm8iUB3ZnxoUxFl-1" source="8K9KiGm8iUB3ZnxoUxFl-11" target="8K9KiGm8iUB3ZnxoUxFl-27">
          <mxGeometry relative="1" as="geometry" />
        </mxCell>
        <mxCell id="8K9KiGm8iUB3ZnxoUxFl-11" value="&lt;b&gt;Unlock&lt;/b&gt; &lt;i&gt;mutComms&lt;/i&gt;" style="rounded=0;whiteSpace=wrap;html=1;sketch=0;fontColor=#143642;strokeColor=#0F8B8D;fillColor=#FAE5C7;" vertex="1" parent="8K9KiGm8iUB3ZnxoUxFl-1">
          <mxGeometry x="390.76" y="650" width="150" height="40" as="geometry" />
        </mxCell>
        <mxCell id="8K9KiGm8iUB3ZnxoUxFl-12" style="edgeStyle=orthogonalEdgeStyle;curved=0;rounded=1;sketch=0;orthogonalLoop=1;jettySize=auto;html=1;exitX=0;exitY=0.5;exitDx=0;exitDy=0;fontColor=#143642;strokeColor=#A8201A;fillColor=#FAE5C7;entryX=0;entryY=0.5;entryDx=0;entryDy=0;" edge="1" parent="8K9KiGm8iUB3ZnxoUxFl-1" source="8K9KiGm8iUB3ZnxoUxFl-16" target="8K9KiGm8iUB3ZnxoUxFl-18">
          <mxGeometry relative="1" as="geometry">
            <mxPoint x="460" y="399.9999999999999" as="targetPoint" />
            <Array as="points">
              <mxPoint x="370" y="270" />
              <mxPoint x="370" y="370" />
            </Array>
          </mxGeometry>
        </mxCell>
        <mxCell id="8K9KiGm8iUB3ZnxoUxFl-13" value="No" style="edgeLabel;html=1;align=center;verticalAlign=middle;resizable=0;points=[];fontColor=#143642;" vertex="1" connectable="0" parent="8K9KiGm8iUB3ZnxoUxFl-12">
          <mxGeometry x="-0.8786" relative="1" as="geometry">
            <mxPoint as="offset" />
          </mxGeometry>
        </mxCell>
        <mxCell id="8K9KiGm8iUB3ZnxoUxFl-14" style="edgeStyle=orthogonalEdgeStyle;curved=0;rounded=1;sketch=0;orthogonalLoop=1;jettySize=auto;html=1;exitX=1;exitY=0.5;exitDx=0;exitDy=0;entryX=0.5;entryY=0;entryDx=0;entryDy=0;fontColor=#143642;strokeColor=#A8201A;fillColor=#FAE5C7;" edge="1" parent="8K9KiGm8iUB3ZnxoUxFl-1" source="8K9KiGm8iUB3ZnxoUxFl-16" target="8K9KiGm8iUB3ZnxoUxFl-7">
          <mxGeometry relative="1" as="geometry" />
        </mxCell>
        <mxCell id="8K9KiGm8iUB3ZnxoUxFl-15" value="Yes" style="edgeLabel;html=1;align=center;verticalAlign=middle;resizable=0;points=[];fontColor=#143642;" vertex="1" connectable="0" parent="8K9KiGm8iUB3ZnxoUxFl-14">
          <mxGeometry x="-0.7996" y="-1" relative="1" as="geometry">
            <mxPoint as="offset" />
          </mxGeometry>
        </mxCell>
        <mxCell id="8K9KiGm8iUB3ZnxoUxFl-16" value="Is &lt;i&gt;tx_msgs&lt;/i&gt; empty?" style="rhombus;whiteSpace=wrap;html=1;rounded=0;sketch=0;fontColor=#143642;strokeColor=#0F8B8D;fillColor=#FAE5C7;" vertex="1" parent="8K9KiGm8iUB3ZnxoUxFl-1">
          <mxGeometry x="422" y="230" width="85.5" height="80" as="geometry" />
        </mxCell>
        <mxCell id="8K9KiGm8iUB3ZnxoUxFl-17" style="edgeStyle=orthogonalEdgeStyle;curved=0;rounded=1;sketch=0;orthogonalLoop=1;jettySize=auto;html=1;exitX=0.5;exitY=1;exitDx=0;exitDy=0;entryX=0.5;entryY=0;entryDx=0;entryDy=0;fontColor=#143642;strokeColor=#A8201A;fillColor=#FAE5C7;" edge="1" parent="8K9KiGm8iUB3ZnxoUxFl-1" source="8K9KiGm8iUB3ZnxoUxFl-18">
          <mxGeometry relative="1" as="geometry">
            <mxPoint x="464.6199999999999" y="410" as="targetPoint" />
          </mxGeometry>
        </mxCell>
        <mxCell id="8K9KiGm8iUB3ZnxoUxFl-18" value="" style="ellipse;whiteSpace=wrap;html=1;aspect=fixed;rounded=0;sketch=0;fontColor=#143642;strokeColor=#0F8B8D;fillColor=#FAE5C7;" vertex="1" parent="8K9KiGm8iUB3ZnxoUxFl-1">
          <mxGeometry x="455" y="360" width="20" height="20" as="geometry" />
        </mxCell>
        <mxCell id="8K9KiGm8iUB3ZnxoUxFl-19" value="Continue to send queued messages" style="shape=note;whiteSpace=wrap;html=1;backgroundOutline=1;darkOpacity=0.05;rounded=0;sketch=0;fontColor=#143642;strokeColor=#0F8B8D;fillColor=#FAE5C7;size=15;fontSize=11;" vertex="1" parent="8K9KiGm8iUB3ZnxoUxFl-1">
          <mxGeometry x="240" y="250" width="100" height="50" as="geometry" />
        </mxCell>
        <mxCell id="8K9KiGm8iUB3ZnxoUxFl-20" value="" style="endArrow=none;dashed=1;html=1;rounded=1;sketch=0;fontColor=#143642;strokeColor=#A8201A;fillColor=#FAE5C7;curved=0;exitX=0;exitY=0;exitDx=100;exitDy=15;exitPerimeter=0;" edge="1" parent="8K9KiGm8iUB3ZnxoUxFl-1" source="8K9KiGm8iUB3ZnxoUxFl-19">
          <mxGeometry width="50" height="50" relative="1" as="geometry">
            <mxPoint x="290" y="360" as="sourcePoint" />
            <mxPoint x="370" y="280" as="targetPoint" />
          </mxGeometry>
        </mxCell>
        <mxCell id="8K9KiGm8iUB3ZnxoUxFl-21" style="edgeStyle=orthogonalEdgeStyle;rounded=1;orthogonalLoop=1;jettySize=auto;html=1;exitX=0.5;exitY=1;exitDx=0;exitDy=0;entryX=0.5;entryY=0;entryDx=0;entryDy=0;strokeColor=#A8201A;" edge="1" parent="8K9KiGm8iUB3ZnxoUxFl-1" source="8K9KiGm8iUB3ZnxoUxFl-22" target="8K9KiGm8iUB3ZnxoUxFl-26">
          <mxGeometry relative="1" as="geometry" />
        </mxCell>
        <mxCell id="8K9KiGm8iUB3ZnxoUxFl-22" value="&lt;b&gt;Pop &lt;/b&gt;&lt;i&gt;msg &lt;/i&gt;from &lt;i&gt;tx_msgs&lt;/i&gt;" style="rounded=0;whiteSpace=wrap;html=1;sketch=0;fontColor=#143642;strokeColor=#0F8B8D;fillColor=#FAE5C7;" vertex="1" parent="8K9KiGm8iUB3ZnxoUxFl-1">
          <mxGeometry x="390" y="410" width="150" height="40" as="geometry" />
        </mxCell>
        <mxCell id="8K9KiGm8iUB3ZnxoUxFl-23" style="edgeStyle=orthogonalEdgeStyle;rounded=1;orthogonalLoop=1;jettySize=auto;html=1;exitX=0.5;exitY=1;exitDx=0;exitDy=0;entryX=0.5;entryY=0;entryDx=0;entryDy=0;strokeColor=#A8201A;" edge="1" parent="8K9KiGm8iUB3ZnxoUxFl-1" source="8K9KiGm8iUB3ZnxoUxFl-24" target="8K9KiGm8iUB3ZnxoUxFl-9">
          <mxGeometry relative="1" as="geometry" />
        </mxCell>
        <mxCell id="8K9KiGm8iUB3ZnxoUxFl-24" value="&lt;b&gt;Lock&lt;/b&gt; &lt;i&gt;mutComms&lt;/i&gt;" style="rounded=0;whiteSpace=wrap;html=1;sketch=0;fontColor=#143642;strokeColor=#0F8B8D;fillColor=#FAE5C7;" vertex="1" parent="8K9KiGm8iUB3ZnxoUxFl-1">
          <mxGeometry x="390.38" y="530" width="150" height="40" as="geometry" />
        </mxCell>
        <mxCell id="8K9KiGm8iUB3ZnxoUxFl-25" style="edgeStyle=orthogonalEdgeStyle;rounded=1;orthogonalLoop=1;jettySize=auto;html=1;exitX=0.5;exitY=1;exitDx=0;exitDy=0;entryX=0.5;entryY=0;entryDx=0;entryDy=0;strokeColor=#A8201A;" edge="1" parent="8K9KiGm8iUB3ZnxoUxFl-1" source="8K9KiGm8iUB3ZnxoUxFl-26" target="8K9KiGm8iUB3ZnxoUxFl-24">
          <mxGeometry relative="1" as="geometry" />
        </mxCell>
        <mxCell id="8K9KiGm8iUB3ZnxoUxFl-26" value="&lt;b&gt;Unlock&lt;/b&gt; &lt;i&gt;mutSend&lt;/i&gt;" style="rounded=0;whiteSpace=wrap;html=1;sketch=0;fontColor=#143642;strokeColor=#0F8B8D;fillColor=#FAE5C7;" vertex="1" parent="8K9KiGm8iUB3ZnxoUxFl-1">
          <mxGeometry x="390.76" y="470" width="150" height="40" as="geometry" />
        </mxCell>
        <mxCell id="8K9KiGm8iUB3ZnxoUxFl-27" value="End" style="ellipse;whiteSpace=wrap;html=1;fillColor=#FAE5C7;strokeColor=#0F8B8D;fontColor=#143642;fontStyle=1" vertex="1" parent="8K9KiGm8iUB3ZnxoUxFl-1">
          <mxGeometry x="436.64" y="720" width="58.25" height="40" as="geometry" />
        </mxCell>
      </root>
    </mxGraphModel>
  </diagram>
  <diagram id="B236Pj5c0BSej4OPTCYv" name="recv">
    <mxGraphModel dx="931" dy="527" grid="1" gridSize="10" guides="1" tooltips="1" connect="1" arrows="1" fold="1" page="1" pageScale="1" pageWidth="850" pageHeight="1100" math="0" shadow="0">
      <root>
        <mxCell id="ajOKWsYXh7jkw-FmMyLL-0" />
        <mxCell id="ajOKWsYXh7jkw-FmMyLL-1" parent="ajOKWsYXh7jkw-FmMyLL-0" />
        <mxCell id="ajOKWsYXh7jkw-FmMyLL-2" style="edgeStyle=orthogonalEdgeStyle;curved=0;rounded=1;sketch=0;orthogonalLoop=1;jettySize=auto;html=1;exitX=0.5;exitY=1;exitDx=0;exitDy=0;entryX=0.5;entryY=0;entryDx=0;entryDy=0;fontColor=#143642;strokeColor=#A8201A;fillColor=#FAE5C7;" edge="1" parent="ajOKWsYXh7jkw-FmMyLL-1" source="ajOKWsYXh7jkw-FmMyLL-3">
          <mxGeometry relative="1" as="geometry">
            <mxPoint x="445.37" y="120" as="targetPoint" />
          </mxGeometry>
        </mxCell>
        <mxCell id="ajOKWsYXh7jkw-FmMyLL-3" value="&lt;div&gt;Recv&lt;/div&gt;&lt;div&gt;&lt;br&gt;&lt;/div&gt;&lt;div&gt;OUT: &lt;span style=&quot;font-weight: normal&quot;&gt;&lt;i&gt;message&lt;/i&gt;&lt;/span&gt;&lt;br&gt;&lt;/div&gt;" style="ellipse;whiteSpace=wrap;html=1;fillColor=#FAE5C7;strokeColor=#0F8B8D;fontColor=#143642;fontStyle=1" vertex="1" parent="ajOKWsYXh7jkw-FmMyLL-1">
          <mxGeometry x="382.37" y="30" width="125.5" height="50" as="geometry" />
        </mxCell>
        <mxCell id="ajOKWsYXh7jkw-FmMyLL-4" value="" style="edgeStyle=orthogonalEdgeStyle;curved=0;rounded=1;sketch=0;orthogonalLoop=1;jettySize=auto;html=1;fontColor=#143642;strokeColor=#A8201A;fillColor=#FAE5C7;" edge="1" parent="ajOKWsYXh7jkw-FmMyLL-1" source="ajOKWsYXh7jkw-FmMyLL-5">
          <mxGeometry relative="1" as="geometry">
            <mxPoint x="445.2499999999999" y="179.9999999999999" as="targetPoint" />
          </mxGeometry>
        </mxCell>
        <mxCell id="ajOKWsYXh7jkw-FmMyLL-5" value="&lt;div&gt;&lt;b&gt;Lock&lt;/b&gt; &lt;i&gt;mutComms&lt;/i&gt;&lt;/div&gt;" style="rounded=0;whiteSpace=wrap;html=1;sketch=0;fontColor=#143642;strokeColor=#0F8B8D;fillColor=#FAE5C7;" vertex="1" parent="ajOKWsYXh7jkw-FmMyLL-1">
          <mxGeometry x="370.25" y="120" width="150" height="40" as="geometry" />
        </mxCell>
        <mxCell id="ajOKWsYXh7jkw-FmMyLL-6" value="Returns &lt;i&gt;message&lt;/i&gt;" style="edgeStyle=orthogonalEdgeStyle;curved=0;rounded=1;sketch=0;orthogonalLoop=1;jettySize=auto;html=1;fontColor=#143642;strokeColor=#A8201A;fillColor=#FAE5C7;entryX=0.5;entryY=0;entryDx=0;entryDy=0;" edge="1" parent="ajOKWsYXh7jkw-FmMyLL-1" target="ajOKWsYXh7jkw-FmMyLL-8">
          <mxGeometry relative="1" as="geometry">
            <mxPoint x="445.2499999999999" y="220" as="sourcePoint" />
            <mxPoint x="444.7500000000001" y="269.9999999999999" as="targetPoint" />
          </mxGeometry>
        </mxCell>
        <mxCell id="ajOKWsYXh7jkw-FmMyLL-7" style="edgeStyle=orthogonalEdgeStyle;rounded=1;orthogonalLoop=1;jettySize=auto;html=1;exitX=0.5;exitY=1;exitDx=0;exitDy=0;entryX=0.5;entryY=0;entryDx=0;entryDy=0;strokeColor=#A8201A;" edge="1" parent="ajOKWsYXh7jkw-FmMyLL-1" source="ajOKWsYXh7jkw-FmMyLL-8" target="ajOKWsYXh7jkw-FmMyLL-10">
          <mxGeometry relative="1" as="geometry" />
        </mxCell>
        <mxCell id="ajOKWsYXh7jkw-FmMyLL-8" value="&lt;b&gt;Unlock&lt;/b&gt; &lt;i&gt;mutComms&lt;/i&gt;" style="rounded=0;whiteSpace=wrap;html=1;sketch=0;fontColor=#143642;strokeColor=#0F8B8D;fillColor=#FAE5C7;" vertex="1" parent="ajOKWsYXh7jkw-FmMyLL-1">
          <mxGeometry x="370" y="270" width="150" height="40" as="geometry" />
        </mxCell>
        <mxCell id="ajOKWsYXh7jkw-FmMyLL-9" value="&lt;b&gt;TCPReceive()&lt;/b&gt;" style="shape=process;whiteSpace=wrap;html=1;backgroundOutline=1;rounded=0;sketch=0;fontColor=#143642;strokeColor=#0F8B8D;fillColor=#FAE5C7;" vertex="1" parent="ajOKWsYXh7jkw-FmMyLL-1">
          <mxGeometry x="370.25" y="180" width="150" height="40" as="geometry" />
        </mxCell>
        <mxCell id="ajOKWsYXh7jkw-FmMyLL-10" value="End" style="ellipse;whiteSpace=wrap;html=1;fillColor=#FAE5C7;strokeColor=#0F8B8D;fontColor=#143642;fontStyle=1" vertex="1" parent="ajOKWsYXh7jkw-FmMyLL-1">
          <mxGeometry x="415.87" y="330" width="58.25" height="40" as="geometry" />
        </mxCell>
      </root>
    </mxGraphModel>
  </diagram>
</mxfile>
